<?xml version="1.0" encoding="UTF-8" standalone="no"?>
<!DOCTYPE svg PUBLIC "-//W3C//DTD SVG 1.1//EN"
 "http://www.w3.org/Graphics/SVG/1.1/DTD/svg11.dtd">
<!-- Generated by graphviz version 2.40.1 (20161225.0304)
 -->
<!-- Title: G Pages: 1 -->
<svg width="399pt" height="366pt"
 viewBox="0.00 0.00 399.44 365.80" xmlns="http://www.w3.org/2000/svg" xmlns:xlink="http://www.w3.org/1999/xlink">
<g id="graph0" class="graph" transform="scale(1 1) rotate(0) translate(4 361.8)">
<title>G</title>
<polygon fill="#ffffff" stroke="transparent" points="-4,4 -4,-361.8 395.439,-361.8 395.439,4 -4,4"/>
<!-- Aricraft properties -->
<g id="node1" class="node">
<title>Aricraft properties</title>
<ellipse fill="#f08080" stroke="#000000" cx="82.6186" cy="-339.8" rx="82.7374" ry="18"/>
<text text-anchor="middle" x="82.6186" y="-335.6" font-family="Times,serif" font-size="14.00" fill="#000000">Aricraft properties</text>
</g>
<!-- Aircraft dynamics -->
<g id="node2" class="node">
<title>Aircraft dynamics</title>
<ellipse fill="#a2d2ff" stroke="#000000" cx="82.6186" cy="-266.8" rx="81.035" ry="18"/>
<text text-anchor="middle" x="82.6186" y="-262.6" font-family="Times,serif" font-size="14.00" fill="#000000">Aircraft dynamics</text>
</g>
<!-- Aricraft properties&#45;&gt;Aircraft dynamics -->
<g id="edge1" class="edge">
<title>Aricraft properties&#45;&gt;Aircraft dynamics</title>
<path fill="none" stroke="#000000" d="M82.6186,-321.7551C82.6186,-313.6828 82.6186,-303.9764 82.6186,-294.9817"/>
<polygon fill="#000000" stroke="#000000" points="86.1187,-294.8903 82.6186,-284.8904 79.1187,-294.8904 86.1187,-294.8903"/>
</g>
<!-- Solver -->
<g id="node4" class="node">
<title>Solver</title>
<path fill="#a2d2ff" stroke="#000000" d="M274.6186,-211.8C274.6186,-211.8 190.6186,-211.8 190.6186,-211.8 184.6186,-211.8 178.6186,-205.8 178.6186,-199.8 178.6186,-199.8 178.6186,-173.8 178.6186,-173.8 178.6186,-167.8 184.6186,-161.8 190.6186,-161.8 190.6186,-161.8 274.6186,-161.8 274.6186,-161.8 280.6186,-161.8 286.6186,-167.8 286.6186,-173.8 286.6186,-173.8 286.6186,-199.8 286.6186,-199.8 286.6186,-205.8 280.6186,-211.8 274.6186,-211.8"/>
<text text-anchor="middle" x="232.6186" y="-182.6" font-family="Times,serif" font-size="14.00" fill="#000000">Solver</text>
</g>
<!-- Aircraft dynamics&#45;&gt;Solver -->
<g id="edge4" class="edge">
<title>Aircraft dynamics&#45;&gt;Solver</title>
<path fill="none" stroke="#000000" d="M114.0635,-250.0294C132.1793,-240.3676 155.4835,-227.9387 176.6291,-216.6611"/>
<polygon fill="#000000" stroke="#000000" points="178.3614,-219.7039 185.5379,-211.9097 175.0673,-213.5274 178.3614,-219.7039"/>
</g>
<!-- Controller -->
<g id="node3" class="node">
<title>Controller</title>
<ellipse fill="#f08080" stroke="#000000" cx="232.6186" cy="-266.8" rx="50.9599" ry="18"/>
<text text-anchor="middle" x="232.6186" y="-262.6" font-family="Times,serif" font-size="14.00" fill="#000000">Controller</text>
</g>
<!-- Controller&#45;&gt;Solver -->
<g id="edge2" class="edge">
<title>Controller&#45;&gt;Solver</title>
<path fill="none" stroke="#000000" d="M232.6186,-248.6468C232.6186,-240.742 232.6186,-231.1952 232.6186,-221.9929"/>
<polygon fill="#000000" stroke="#000000" points="236.1187,-221.8553 232.6186,-211.8553 229.1187,-221.8554 236.1187,-221.8553"/>
</g>
<!-- Post processing -->
<g id="node6" class="node">
<title>Post processing</title>
<ellipse fill="#f0e68c" stroke="#000000" cx="183.6186" cy="-91" rx="71.2676" ry="18"/>
<text text-anchor="middle" x="183.6186" y="-86.8" font-family="Times,serif" font-size="14.00" fill="#000000">Post processing</text>
</g>
<!-- Solver&#45;&gt;Post processing -->
<g id="edge5" class="edge">
<title>Solver&#45;&gt;Post processing</title>
<path fill="none" stroke="#000000" d="M190.9886,-161.5501C185.5071,-156.3846 180.6699,-150.458 177.4166,-143.8 173.6716,-136.1358 173.4391,-127.1236 174.6709,-118.7358"/>
<polygon fill="#000000" stroke="#000000" points="178.0957,-119.4572 176.762,-108.9467 171.2501,-117.9948 178.0957,-119.4572"/>
<text text-anchor="middle" x="226.2196" y="-131.2" font-family="Times,serif" font-size="14.00" fill="#000000"> System response</text>
</g>
<!-- Visualization -->
<g id="node7" class="node">
<title>Visualization</title>
<ellipse fill="#f0e68c" stroke="#000000" cx="238.6186" cy="-18" rx="62.5547" ry="18"/>
<text text-anchor="middle" x="238.6186" y="-13.8" font-family="Times,serif" font-size="14.00" fill="#000000">Visualization</text>
</g>
<!-- Solver&#45;&gt;Visualization -->
<g id="edge6" class="edge">
<title>Solver&#45;&gt;Visualization</title>
<path fill="none" stroke="#000000" d="M263.3895,-161.4413C267.9702,-156.1262 272.0204,-150.1785 274.6186,-143.8 288.1281,-110.6348 271.3489,-70.6127 256.4609,-44.7544"/>
<polygon fill="#000000" stroke="#000000" points="259.2851,-42.6601 251.1211,-35.9074 253.2921,-46.2774 259.2851,-42.6601"/>
</g>
<!-- Actuator -->
<g id="node5" class="node">
<title>Actuator</title>
<ellipse fill="#f08080" stroke="#000000" cx="346.6186" cy="-266.8" rx="44.6414" ry="18"/>
<text text-anchor="middle" x="346.6186" y="-262.6" font-family="Times,serif" font-size="14.00" fill="#000000">Actuator</text>
</g>
<!-- Actuator&#45;&gt;Solver -->
<g id="edge3" class="edge">
<title>Actuator&#45;&gt;Solver</title>
<path fill="none" stroke="#000000" d="M324.0959,-250.9946C310.6132,-241.533 293.0081,-229.1786 276.847,-217.8375"/>
<polygon fill="#000000" stroke="#000000" points="278.753,-214.8992 268.5569,-212.0198 274.732,-220.6291 278.753,-214.8992"/>
</g>
<!-- Post processing&#45;&gt;Visualization -->
<g id="edge7" class="edge">
<title>Post processing&#45;&gt;Visualization</title>
<path fill="none" stroke="#000000" d="M197.2141,-72.9551C203.8079,-64.2033 211.8489,-53.5307 219.0847,-43.9268"/>
<polygon fill="#000000" stroke="#000000" points="221.9574,-45.9304 225.1795,-35.8374 216.3666,-41.7181 221.9574,-45.9304"/>
</g>
</g>
</svg>
